<svg xmlns="http://www.w3.org/2000/svg" viewBox="0 0 100 100" width="100" height="100">
  <defs>
    <linearGradient id="modern-bg" x1="0%" y1="0%" x2="100%" y2="100%">
      <stop offset="0%" style="stop-color:#1a365d"/>
      <stop offset="100%" style="stop-color:#2c5282"/>
    </linearGradient>
    <linearGradient id="modern-dress" x1="0%" y1="0%" x2="0%" y2="100%">
      <stop offset="0%" style="stop-color:#e53e3e"/>
      <stop offset="100%" style="stop-color:#c53030"/>
    </linearGradient>
  </defs>
  
  <circle cx="50" cy="50" r="48" fill="url(#modern-bg)" stroke="#4299e1" stroke-width="2"/>
  
  <g fill="#fbd38d">
    <ellipse cx="50" cy="36" rx="13" ry="15"/>
  </g>
  
  <path d="M35 25 Q50 18 65 25 Q68 35 65 40 Q50 38 35 40 Q32 35 35 25" fill="#4a5568"/>
  <path d="M38 28 Q50 22 62 28 Q64 33 62 36 Q50 34 38 36 Q36 33 38 28" fill="#2d3748"/>
  
  <path d="M32 50 Q50 46 68 50 L72 92 Q50 96 28 92 Z" fill="url(#modern-dress)"/>
  
  <circle cx="38" cy="32" r="2" fill="#e53e3e"/>
  <circle cx="62" cy="32" r="2" fill="#e53e3e"/>
  
  <g fill="none" stroke="#ffd700" stroke-width="2">
    <path d="M25 60 Q30 55 35 60 Q40 65 45 60"/>
    <path d="M55 60 Q60 55 65 60 Q70 65 75 60"/>
  </g>
  
  <rect x="70" y="65" width="10" height="14" fill="#2d3748" rx="2"/>
  <rect x="72" y="67" width="6" height="8" fill="#4299e1"/>
  
  <text x="50" y="95" text-anchor="middle" font-size="10" fill="#ffd700" font-family="Cinzel, serif" font-weight="bold">Viva</text>
</svg>