<svg xmlns="http://www.w3.org/2000/svg" viewBox="0 0 100 100" width="100" height="100">
  <defs>
    <linearGradient id="merchant-bg" x1="0%" y1="0%" x2="100%" y2="100%">
      <stop offset="0%" style="stop-color:#744210"/>
      <stop offset="100%" style="stop-color:#5d3a0a"/>
    </linearGradient>
    <linearGradient id="toga-merchant" x1="0%" y1="0%" x2="0%" y2="100%">
      <stop offset="0%" style="stop-color:#d69e2e"/>
      <stop offset="100%" style="stop-color:#b7791f"/>
    </linearGradient>
  </defs>
  
  <circle cx="50" cy="50" r="48" fill="url(#merchant-bg)" stroke="#d69e2e" stroke-width="2"/>
  
  <g fill="#d4c4a8">
    <ellipse cx="50" cy="36" rx="13" ry="15"/>
  </g>
  
  <ellipse cx="50" cy="28" rx="15" ry="6" fill="#1a1a1a"/>
  <path d="M35 32 Q50 26 65 32 L63 38 Q50 35 37 38 Z" fill="#1a1a1a"/>
  
  <path d="M30 50 Q50 45 70 50 L76 92 Q50 98 24 92 Z" fill="url(#toga-merchant)"/>
  
  <path d="M35 52 Q40 72 38 92" fill="none" stroke="#8b4513" stroke-width="1"/>
  <path d="M50 50 Q50 72 50 92" fill="none" stroke="#8b4513" stroke-width="1"/>
  <path d="M65 52 Q60 72 62 92" fill="none" stroke="#8b4513" stroke-width="1"/>
  
  <circle cx="50" cy="32" r="2" fill="#d69e2e"/>
  
  <g transform="translate(68, 55)">
    <ellipse cx="8" cy="12" rx="8" ry="12" fill="#8b4513"/>
    <ellipse cx="8" cy="5" rx="6" ry="3" fill="#d69e2e"/>
    <line x1="4" y1="8" x2="12" y2="8" stroke="#d69e2e" stroke-width="1"/>
    <line x1="4" y1="12" x2="12" y2="12" stroke="#d69e2e" stroke-width="1"/>
    <line x1="4" y1="16" x2="12" y2="16" stroke="#d69e2e" stroke-width="1"/>
  </g>
  
  <g fill="#d69e2e">
    <circle cx="25" cy="70" r="4"/>
    <circle cx="75" cy="70" r="4"/>
  </g>
  
  <text x="50" y="95" text-anchor="middle" font-size="10" fill="#d69e2e" font-family="Cinzel, serif" font-weight="bold">$</text>
</svg>